<?xml version="1.0" encoding="UTF-8"?>
<svg version="1.1" xmlns="http://www.w3.org/2000/svg" width="500" height="500">
<path d="M0 0 C34.88842301 -0.04414709 69.77681876 -0.08105378 104.66526133 -0.10213066 C108.79051281 -0.10463187 112.91576423 -0.10722053 117.04101562 -0.10986328 C118.27283469 -0.11065021 118.27283469 -0.11065021 119.52953899 -0.11145304 C132.80098454 -0.12013955 146.07241265 -0.1358998 159.34384787 -0.15430559 C172.97639364 -0.17305356 186.60893032 -0.18412705 200.24148846 -0.18817699 C208.64357321 -0.19091192 217.04560865 -0.1995286 225.44767821 -0.21583293 C231.22073765 -0.22646035 236.99377184 -0.22958769 242.76684034 -0.22700275 C246.09031257 -0.22573035 249.41363036 -0.22870386 252.73709869 -0.23841095 C283.89464387 -0.32490713 309.06933848 4.13588606 335 22 C335.79019531 22.54140625 336.58039063 23.0828125 337.39453125 23.640625 C337.92433594 24.08921875 338.45414062 24.5378125 339 25 C339 25.66 339 26.32 339 27 C339.66 27 340.32 27 341 27 C341 27.66 341 28.32 341 29 C341.59296875 29.25910156 342.1859375 29.51820312 342.796875 29.78515625 C346.73895062 31.95888944 349.20623187 35.53618179 352 39 C352.98226562 40.21042969 352.98226562 40.21042969 353.984375 41.4453125 C370.77905139 63.25235355 376.48456532 91.8351395 373.05249023 118.79223633 C370.49792683 136.18347308 362.95126496 153.25427432 352 167 C351.34 167 350.68 167 350 167 C349.34 168.65 348.68 170.3 348 172 C348.67546875 172.60328125 349.3509375 173.2065625 350.046875 173.828125 C350.93890625 174.62734375 351.8309375 175.4265625 352.75 176.25 C353.63171875 177.03890625 354.5134375 177.8278125 355.421875 178.640625 C360.09656925 182.91867853 360.09656925 182.91867853 362 185 C362 185.66 362 186.32 362 187 C362.66 187 363.32 187 364 187 C365.68753542 189.36437066 367.23535636 191.71481211 368.75 194.1875 C369.42216553 195.27865112 369.42216553 195.27865112 370.10791016 196.3918457 C376.3486285 206.69207139 381.01354225 217.31209034 384 229 C384.17805176 229.67232666 384.35610352 230.34465332 384.53955078 231.03735352 C386.44540412 239.13680443 386.39924689 247.29161484 386.375 255.5625 C386.3737915 256.32111328 386.37258301 257.07972656 386.37133789 257.86132812 C386.27162482 280.8780239 380.00532353 299.93650044 367 319 C366.48050781 319.92167969 365.96101563 320.84335937 365.42578125 321.79296875 C364.95527344 322.52128906 364.48476563 323.24960937 364 324 C363.34 324 362.68 324 362 324 C362 324.66 362 325.32 362 326 C361.34 326 360.68 326 360 326 C359.6596875 326.8353125 359.6596875 326.8353125 359.3125 327.6875 C357.62449964 330.66159588 355.53323483 332.72008865 353 335 C352.34 335 351.68 335 351 335 C351 335.66 351 336.32 351 337 C327.67186977 356.61020948 298.84979898 364.20270971 268.88909912 364.12025452 C267.73136781 364.12110894 266.5736365 364.12196337 265.38082242 364.12284368 C261.53478992 364.12447952 257.68880187 364.11900839 253.84277344 364.11352539 C251.07256544 364.11268472 248.30235828 364.11335816 245.53215027 364.1139679 C239.58515724 364.11449017 233.63817525 364.11137442 227.691185 364.10573006 C219.0930221 364.09757478 210.49486449 364.09499572 201.89669815 364.09374207 C187.94398715 364.09155786 173.99128203 364.08491492 160.03857422 364.07543945 C146.491374 364.06624898 132.94417537 364.05917616 119.39697266 364.05493164 C118.56077958 364.05466892 117.72458651 364.05440619 116.86305425 364.05413551 C112.66777785 364.05283039 108.47250144 364.0515667 104.27722502 364.05032361 C69.51814479 364.03997065 34.75907544 364.02154296 0 364 C0 332.65 0 301.3 0 269 C-4.62 269 -9.24 269 -14 269 C-14 261.74 -14 254.48 -14 247 C6.46 247 26.92 247 48 247 C49.13824057 256.1059246 49.13824057 256.1059246 49.125 259.6875 C49.12886719 260.74517578 49.12886719 260.74517578 49.1328125 261.82421875 C49 264 49 264 48 269 C43.05 269.33 38.1 269.66 33 270 C33 290.13 33 310.26 33 331 C63.93921033 331.06624007 94.87835176 331.12159253 125.81761095 331.15319599 C129.477203 331.15694773 133.1367949 331.16083074 136.79638672 331.16479492 C137.52489037 331.16558185 138.25339402 331.16636878 139.00397354 331.16717956 C150.77196596 331.18020378 162.53991404 331.20384102 174.30788022 331.23145839 C186.3990874 331.25959592 198.49027149 331.27619383 210.58151007 331.28226548 C217.36615451 331.28599853 224.15070683 331.29491385 230.93531799 331.31719017 C237.33089023 331.33766435 243.72632155 331.34381178 250.12192345 331.33932304 C252.45986893 331.34014337 254.79781948 331.34604341 257.13573647 331.35761642 C278.94374259 331.46020667 300.61520169 329.57067254 318.875 316.25 C322 314 322 314 324 314 C324 313.34 324 312.68 324 312 C325.64453125 310.4140625 325.64453125 310.4140625 327.8125 308.625 C330.06250857 306.76433718 331.90350285 305.13127297 333.63671875 302.7734375 C334.08660156 302.18820312 334.53648437 301.60296875 335 301 C335.66 301 336.32 301 337 301 C337.37318359 299.99839844 337.37318359 299.99839844 337.75390625 298.9765625 C338.98661753 296.03196691 340.3918496 293.25563153 341.86889648 290.42944336 C345.50424773 283.44029995 348.46458385 276.78297152 350 269 C350.3403125 267.3603125 350.3403125 267.3603125 350.6875 265.6875 C352.26637804 247.05673915 349.56224751 228.36414697 338.77734375 212.6640625 C337 210 337 210 337 208 C336.34 208 335.68 208 335 208 C333.4140625 206.35546875 333.4140625 206.35546875 331.625 204.1875 C329.76433718 201.93749143 328.13127297 200.09649715 325.7734375 198.36328125 C325.18820312 197.91339844 324.60296875 197.46351563 324 197 C324 196.34 324 195.68 324 195 C323.45988281 194.74605469 322.91976563 194.49210938 322.36328125 194.23046875 C319.52303764 192.75166423 316.88442717 191.03921186 314.1875 189.3125 C307.09682031 184.85112211 299.63780512 181.40885222 292 178 C291.34 177.67 290.68 177.34 290 177 C291 174 291 174 293.15234375 172.640625 C294.07144531 172.18171875 294.99054688 171.7228125 295.9375 171.25 C300.95396281 168.64353499 305.46199505 165.67769326 310.00390625 162.3203125 C312 161 312 161 314 161 C314 160.34 314 159.68 314 159 C315.12525155 157.97350723 316.30282645 157.00412304 317.5 156.0625 C329.45899294 145.83608201 337.43616049 130.63839513 339 115 C340.4169628 94.01545571 337.49772739 74.72872701 324 58 C324 57.34 324 56.68 324 56 C323.34 56 322.68 56 322 56 C322 55.34 322 54.68 322 54 C321.34 54 320.68 54 320 54 C320 53.34 320 52.68 320 52 C319.34 52 318.68 52 318 52 C318 51.34 318 50.68 318 50 C317.34 50 316.68 50 316 50 C316 49.34 316 48.68 316 48 C315.319375 47.7525 314.63875 47.505 313.9375 47.25 C311.10848127 46.04616224 308.51926795 44.60486613 305.859375 43.0703125 C305.24578125 42.71710938 304.6321875 42.36390625 304 42 C303.42765625 41.66742188 302.8553125 41.33484375 302.265625 40.9921875 C289.62761111 34.13309449 275.82108357 32.85708828 261.72409058 32.84178162 C260.73957731 32.83684364 259.75506405 32.83190566 258.74071705 32.82681805 C255.46891059 32.81156063 252.19712357 32.80311458 248.92529297 32.79467773 C246.56916638 32.78508995 244.21304148 32.77507935 241.85691833 32.76467896 C235.47962556 32.73772139 229.10232546 32.71666246 222.72500753 32.69667697 C216.72976548 32.67698312 210.73454194 32.65285466 204.73931636 32.62875474 C192.8708197 32.58118872 181.00231151 32.53789506 169.13378906 32.49731445 C157.61001692 32.4579034 146.086255 32.41646389 134.5625 32.37231445 C133.85123529 32.36959018 133.13997058 32.36686591 132.4071524 32.36405908 C128.83866559 32.35037868 125.27017893 32.33665859 121.70169234 32.32291877 C92.13448252 32.20912681 62.5672495 32.10307143 33 32 C33 51.14 33 70.28 33 90 C37.29 90 41.58 90 46 90 C46 96.93 46 103.86 46 111 C26.2 111 6.4 111 -14 111 C-14 104.07 -14 97.14 -14 90 C-9.38 90 -4.76 90 0 90 C0 60.3 0 30.6 0 0 Z " fill="#255B6D" transform="translate(79,55)"/>
<path d="M0 0 C35.1942558 -0.09050862 70.38847409 -0.16208328 105.58282186 -0.20426132 C109.74198234 -0.20926388 113.9011426 -0.2144412 118.06030273 -0.21972656 C118.88828361 -0.2207758 119.71626448 -0.22182505 120.56933568 -0.22290608 C133.95923277 -0.24029046 147.34906086 -0.27181726 160.73891708 -0.30861118 C174.48783642 -0.34607544 188.23671974 -0.36824743 201.98568803 -0.37635398 C210.46308323 -0.3818304 218.94028336 -0.39909953 227.41761849 -0.43166587 C233.23832847 -0.45288156 239.05893825 -0.45918417 244.87968405 -0.45400551 C248.23331989 -0.45145457 251.58634324 -0.45745999 254.93996429 -0.4768219 C276.60957894 -0.59575927 291.70941729 1.38072547 308.3828125 16.265625 C310 18 310 18 310 20 C310.66 20 311.32 20 312 20 C321.68786584 36.43760844 325.94468781 53.32687781 321.3125 72.25 C318.30790739 83.51020219 313.62435528 92.00551336 305 100 C303.515 100.495 303.515 100.495 302 101 C302 101.66 302 102.32 302 103 C299.48287811 104.29935464 296.96170913 105.58954372 294.4375 106.875 C293.38079102 107.42220703 293.38079102 107.42220703 292.30273438 107.98046875 C291.60341797 108.33496094 290.90410156 108.68945312 290.18359375 109.0546875 C289.54993896 109.37937012 288.91628418 109.70405273 288.26342773 110.03857422 C282.85237013 112.33700425 277.86715974 113.24959994 272.0080719 113.24050903 C271.34055544 113.24221788 270.67303899 113.24392673 269.98529476 113.24568737 C267.76816038 113.24895861 265.5513346 113.23801813 263.33422852 113.22705078 C261.73715726 113.22648615 260.14008548 113.22680423 258.54301453 113.22793579 C254.22120701 113.22850829 249.8995111 113.21677058 245.57772946 113.20278788 C241.05605212 113.19026344 236.53437206 113.18910867 232.01268005 113.18673706 C223.45639087 113.18052733 214.90015295 113.16412336 206.34388632 113.14403808 C196.60026482 113.12166332 186.85664084 113.11068168 177.11300004 113.10064721 C157.07529841 113.07975668 137.03766704 113.04308677 117 113 C117 93.2 117 73.4 117 53 C122.259375 52.979375 127.51875 52.95875 132.9375 52.9375 C134.599021 52.928396 136.26054199 52.91929199 137.97241211 52.90991211 C139.26928955 52.90741455 140.56616699 52.90491699 141.90234375 52.90234375 C142.58816528 52.89722778 143.27398682 52.89211182 143.98059082 52.88684082 C145.65415231 52.88652946 147.3275958 52.93777163 149 53 C150 54 150 54 150.11352539 56.68383789 C150.10828857 57.85164795 150.10305176 59.01945801 150.09765625 60.22265625 C150.09443359 61.48271484 150.09121094 62.74277344 150.08789062 64.04101562 C150.07953403 65.38151109 150.07106907 66.72200588 150.0625 68.0625 C150.0574866 69.40689942 150.05292342 70.7513006 150.04882812 72.09570312 C150.03699488 75.39717941 150.02050971 78.69856803 150 82 C165.62116001 81.96276748 181.2420588 81.90281035 196.86301327 81.81609726 C204.11676828 81.77635595 211.37041557 81.74393867 218.62426758 81.72900391 C224.94970747 81.71596178 231.27490987 81.68893235 237.60021597 81.64538693 C240.94686247 81.6228286 244.2929589 81.60917275 247.63972282 81.60811615 C251.38379225 81.60574567 255.12693951 81.57865633 258.87084961 81.54589844 C259.96993149 81.5509288 261.06901337 81.55595917 262.20140076 81.56114197 C269.08326806 81.46822828 273.9242022 80.15645786 280 77 C281.485 76.505 281.485 76.505 283 76 C283 75.34 283 74.68 283 74 C283.66 74 284.32 74 285 74 C289.73545737 62.83785049 290.53775313 53.28560363 286 42 C285.67 41.01 285.34 40.02 285 39 C284.34 39 283.68 39 283 39 C283 38.34 283 37.68 283 37 C278.36559569 34.59697554 274.39555634 32.75279988 269.10560131 32.73828697 C268.14119568 32.73082148 267.17679005 32.72335599 266.18316001 32.71566427 C265.13160438 32.717599 264.08004876 32.71953374 262.99662781 32.7215271 C261.87346234 32.7157347 260.75029687 32.7099423 259.59309608 32.70397437 C255.8220449 32.68694203 252.05111586 32.68409503 248.2800293 32.68115234 C245.57981161 32.6718564 242.87960751 32.66177556 240.17939758 32.65071106 C234.36215928 32.62844133 228.54493856 32.61342633 222.72766685 32.60334396 C214.31688382 32.58875609 205.90616204 32.56321896 197.49541495 32.53501268 C183.8494172 32.48954666 170.20341064 32.45293106 156.55737305 32.421875 C143.30182344 32.39168868 130.0462954 32.35733803 116.79077148 32.31738281 C115.97364831 32.31492126 115.15652514 32.31245972 114.31464066 32.30992357 C110.2153581 32.29754896 106.1160758 32.28509243 102.01679361 32.27259517 C68.01122436 32.16903021 34.00563182 32.08037157 0 32 C0 21.44 0 10.88 0 0 Z " fill="#22596B" transform="translate(71,248)"/>
<path d="M0 0 C20.78454711 -0.0678256 41.56900405 -0.12304493 62.35363388 -0.15543652 C72.00516483 -0.17087893 81.65662193 -0.19191804 91.30810547 -0.22631836 C99.7242816 -0.25630133 108.14040422 -0.27559407 116.55663228 -0.28226548 C121.00938752 -0.28616271 125.46198974 -0.29526654 129.91469574 -0.31719017 C134.11387876 -0.33769618 138.31284708 -0.34380557 142.51207542 -0.33932304 C144.04542651 -0.34014198 145.57878549 -0.34602304 147.11209297 -0.35761642 C165.05157437 -0.48649555 178.88702424 3.2878931 191.94921875 15.87890625 C202.13417448 26.81503008 206.53989805 41.43231002 206.18359375 56.1875 C205.12126693 72.46144274 199.31103452 86.09594086 187 97 C186.34 97 185.68 97 185 97 C185 97.66 185 98.32 185 99 C173.11042357 108.20653042 159.31251509 110.1608461 144.79408264 110.12025452 C143.67329187 110.12110894 142.55250111 110.12196337 141.39774698 110.12284368 C137.64674013 110.12448921 133.89577812 110.11899226 130.14477539 110.11352539 C127.45412088 110.11324329 124.76346911 110.11335768 122.07281494 110.1139679 C116.28233947 110.11449155 110.49187529 110.11136129 104.70140266 110.10573006 C96.32941247 110.09759361 87.95742773 110.09499764 79.58543401 110.09374207 C66.00153299 110.09155492 52.41763799 110.08490397 38.83374023 110.07543945 C25.64038116 110.06625662 12.44702373 110.05918004 -0.74633789 110.05493164 C-1.96675398 110.05453756 -1.96675398 110.05453756 -3.21182495 110.05413551 C-7.29358195 110.05283045 -11.37533896 110.05156674 -15.45709598 110.05032361 C-49.3047352 110.03996149 -83.15236644 110.0220766 -117 110 C-117 99.44 -117 88.88 -117 78 C-111.90306198 77.99786247 -111.90306198 77.99786247 -106.70315552 77.99568176 C-75.52700526 77.98029678 -44.35097558 77.94017231 -13.17489351 77.87314438 C-9.08697366 77.86437786 -4.99905339 77.85582801 -0.91113281 77.84741211 C-0.09731808 77.84573305 0.71649664 77.84405398 1.55497243 77.84232404 C14.72377087 77.81567059 27.89252578 77.80656015 41.06134842 77.80395857 C54.57866584 77.80089669 68.09585762 77.77892283 81.61311829 77.73947543 C89.95078304 77.71573722 98.28819682 77.70666513 106.62589069 77.71648689 C112.34713631 77.72181188 118.0681575 77.7087295 123.78933923 77.6813371 C127.08790332 77.66608239 130.38586465 77.66151933 133.68445778 77.67340279 C137.26791728 77.68503328 140.84996878 77.66588995 144.43331909 77.63923645 C145.46641956 77.64990971 146.49952003 77.66058297 147.56392658 77.67157966 C154.59977539 77.57419124 160.15328496 76.03626697 166 72 C166.66 71.01 167.32 70.02 168 69 C168.66 69 169.32 69 170 69 C172.56427251 59.3839781 173.80504705 50.03348845 169 41 C168.67 40.01 168.34 39.02 168 38 C167.34 38 166.68 38 166 38 C166 37.34 166 36.68 166 36 C165.05125 35.690625 164.1025 35.38125 163.125 35.0625 C160 34 160 34 158 33 C156.34046432 32.89531761 154.67680071 32.85344449 153.01400757 32.84178162 C151.43222969 32.82709839 151.43222969 32.82709839 149.8184967 32.81211853 C148.65684494 32.80636307 147.49519318 32.8006076 146.29833984 32.79467773 C145.07885147 32.78477814 143.8593631 32.77487854 142.60292053 32.76467896 C139.25397739 32.7384565 135.90505854 32.71660881 132.55607557 32.69667697 C129.05799747 32.674833 125.55996305 32.64743655 122.06192017 32.62062073 C115.43568317 32.5706723 108.80942196 32.52574147 102.18313754 32.48259836 C94.64027965 32.43324434 87.09746559 32.37831942 79.55465007 32.32291877 C64.0364736 32.20906573 48.51825629 32.10243156 33 32 C33 39.26 33 46.52 33 54 C16.665 54.495 16.665 54.495 0 55 C0 36.85 0 18.7 0 0 Z " fill="#255C6E" transform="translate(188,110)"/>
<path d="M0 0 C92.4 0 184.8 0 280 0 C280 0.99 280 1.98 280 3 C278.37174789 2.99666908 278.37174789 2.99666908 276.71060181 2.99327087 C266.49822171 2.9730299 256.28584567 2.95802323 246.07345009 2.94818783 C240.82272127 2.94296144 235.57200859 2.93586819 230.32128906 2.92456055 C225.25738745 2.91372304 220.1935014 2.90772132 215.12958908 2.90512276 C213.19422536 2.90327007 211.25886252 2.89965244 209.3235054 2.89426994 C206.62011093 2.88704808 203.91678141 2.88600955 201.21337891 2.88647461 C200.40705521 2.88287933 199.60073151 2.87928406 198.76997375 2.87557983 C194.75481963 2.79051357 194.75481963 2.79051357 191 4 C188.73801739 4.08265422 186.47346594 4.09707073 184.21002197 4.08229065 C183.50356938 4.07906152 182.79711679 4.07583239 182.06925654 4.07250541 C179.68967189 4.06039242 177.31020051 4.04102632 174.93066406 4.02172852 C173.22897084 4.01158847 171.52727491 4.0018945 169.82557678 3.99261475 C165.19056865 3.96607738 160.55562273 3.93329653 155.92066288 3.89946485 C151.06519337 3.86510329 146.20969001 3.83652415 141.35418701 3.80735779 C132.13796045 3.75113 122.92177507 3.6898173 113.70559382 3.62663645 C102.25037015 3.54833253 90.79510913 3.47619465 79.33984375 3.40429688 C75.31801322 3.37902894 71.29618294 3.35372022 67.27435303 3.32835388 C66.29831611 3.32219919 65.3222792 3.31604449 64.31666541 3.30970329 C57.61655692 3.26727346 50.91646162 3.22306848 44.21636963 3.17811584 C41.53330439 3.16028288 38.85023892 3.1424834 36.16717339 3.12469482 C34.50566686 3.11357799 32.84416141 3.10229832 31.18265724 3.09083366 C28.89303467 3.07503639 26.60340886 3.05981394 24.31378174 3.04469299 C22.40127058 3.03168325 22.40127058 3.03168325 20.45012283 3.01841068 C14.30013146 2.99296744 8.15004401 3 2 3 C2 31.05 2 59.1 2 88 C1.34 88 0.68 88 0 88 C0 58.96 0 29.92 0 0 Z " fill="#215361" transform="translate(80,56)"/>
<path d="M0 0 C10.89 0 21.78 0 33 0 C33 0.66 33 1.32 33 2 C30.06288185 2.19783697 27.12577543 2.38341775 24.1875 2.5625 C23.37345703 2.61857422 22.55941406 2.67464844 21.72070312 2.73242188 C15.21942529 3.11484998 9.65202526 2.60472957 3 2 C3.33 10.91 3.66 19.82 4 29 C23.19650795 29.02670747 42.3930046 29.04615404 61.58952701 29.05779445 C65.69656402 29.06030086 69.80360051 29.06306043 73.9106369 29.06643295 C110.26056883 29.09615376 146.60768552 29.0864494 182.95586872 28.69487309 C185.08747495 28.67202599 187.2190863 28.64973933 189.35070038 28.62763786 C202.66554508 28.48935374 215.98008149 28.3397099 229.29424477 28.14504051 C234.12459471 28.07710294 238.95503388 28.02098913 243.78556442 27.96761322 C246.00728384 27.94010428 248.2289428 27.90705505 250.45048904 27.86798859 C253.4639095 27.8151976 256.4770004 27.78103084 259.49072266 27.7512207 C260.36017014 27.73108445 261.22961761 27.7109482 262.12541199 27.69020176 C267.52011106 27.6616071 271.18443482 28.53981988 276 31 C276 31.33 276 31.66 276 32 C184.92 32 93.84 32 0 32 C0 21.44 0 10.88 0 0 Z " fill="#507580" transform="translate(71,248)"/>
<path d="M0 0 C16.91706125 -0.02265974 33.83410934 -0.04104452 50.7511816 -0.05181217 C58.60780828 -0.05694685 66.46442478 -0.06393502 74.32104492 -0.07543945 C81.17674519 -0.08547337 88.03243809 -0.09187394 94.88814551 -0.09408849 C98.51101537 -0.09538096 102.13386417 -0.09837236 105.75672722 -0.10573006 C134.7199285 -0.16236301 134.7199285 -0.16236301 149 1 C149 1.33 149 1.66 149 2 C132.94971065 2.9394473 116.93244901 3.08607431 100.859375 3.0625 C99.81365829 3.06105988 98.76794159 3.05961975 97.6905365 3.05813599 C90.0436688 3.04581685 82.39683922 3.02383853 74.75 3 C67.07760093 2.9761378 59.40522363 2.95584747 51.73279572 2.94406128 C48.71504179 2.93772197 45.6973584 2.92522751 42.67962646 2.91235352 C40.78088435 2.90871219 38.88214165 2.90536159 36.98339844 2.90234375 C36.18180298 2.89717743 35.38020752 2.89201111 34.55432129 2.88668823 C24.67025833 2.88583572 14.90727034 3.52822522 5 4 C4.67 19.84 4.34 35.68 4 52 C12.58 52 21.16 52 30 52 C29.92091458 45.17879589 29.92091458 45.17879589 29.81982422 38.35791016 C29.8148291 37.51019043 29.80983398 36.6624707 29.8046875 35.7890625 C29.79421387 34.91975098 29.78374023 34.05043945 29.77294922 33.15478516 C30 31 30 31 32 29 C34.08894539 28.76952171 34.08894539 28.76952171 36.72024536 28.79745483 C37.71586487 28.80311966 38.71148437 28.80878448 39.73727417 28.81462097 C41.38156906 28.83943291 41.38156906 28.83943291 43.05908203 28.86474609 C44.7859021 28.87893837 44.7859021 28.87893837 46.54760742 28.89341736 C50.36783367 28.92720176 54.18774247 28.9752882 58.0078125 29.0234375 C60.65053467 29.04959359 63.29326578 29.07486147 65.93600464 29.09927368 C72.19050037 29.1585528 78.44483804 29.22811557 84.6991843 29.30134451 C91.81872775 29.384205 98.93837134 29.45564484 106.05804658 29.52611041 C120.70550893 29.67133743 135.35279342 29.83095546 150 30 C150 30.33 150 30.66 150 31 C111.06 31 72.12 31 32 31 C32 38.26 32 45.52 32 53 C21.77 53 11.54 53 1 53 C0.67 53.66 0.34 54.32 0 55 C0 36.85 0 18.7 0 0 Z " fill="#2B5764" transform="translate(188,110)"/>
<path d="M0 0 C6.93 0 13.86 0 21 0 C21 0.33 21 0.66 21 1 C15.06 1 9.12 1 3 1 C-2.79846723 18.39540169 2 37.66363661 2 56 C70.805 56.495 70.805 56.495 141 57 C137.05189517 58.97405241 135.63569871 59.24956667 131.40731812 59.24723816 C130.26879898 59.25143265 129.13027985 59.25562714 127.95726013 59.25994873 C126.09002037 59.25151947 126.09002037 59.25151947 124.18505859 59.24291992 C122.87095505 59.24481827 121.5568515 59.24671661 120.20292664 59.24867249 C116.60185804 59.25351681 113.0009135 59.24587099 109.39985991 59.23571944 C105.63316203 59.22693488 101.86646799 59.22869645 98.09976196 59.2290802 C91.77644779 59.22814392 85.45318164 59.21946367 79.12988281 59.20581055 C71.81350732 59.19007184 64.49718436 59.18481293 57.18079317 59.1855461 C50.14671179 59.18615584 43.11264755 59.18105623 36.07857132 59.17275429 C33.08259574 59.16921892 30.08662622 59.16739068 27.09064865 59.16686058 C22.91245783 59.16567216 18.73432959 59.1559709 14.55615234 59.14526367 C13.30727737 59.14571686 12.0584024 59.14617004 10.77168274 59.14663696 C9.07236351 59.14023949 9.07236351 59.14023949 7.3387146 59.13371277 C6.35021704 59.13203692 5.36171947 59.13036108 4.34326744 59.12863445 C2 59 2 59 0 58 C0 38.86 0 19.72 0 0 Z " fill="#406570" transform="translate(189,302)"/>
<path d="M0 0 C1.03125 0.04833984 2.0625 0.09667969 3.125 0.14648438 C4.74535156 0.2305957 4.74535156 0.2305957 6.3984375 0.31640625 C7.48640625 0.36861328 8.574375 0.42082031 9.6953125 0.47460938 C12.3882956 0.604534 15.08093086 0.73950787 17.7734375 0.87890625 C17.7734375 1.20890625 17.7734375 1.53890625 17.7734375 1.87890625 C7.3784375 2.37390625 7.3784375 2.37390625 -3.2265625 2.87890625 C-3.5565625 18.71890625 -3.8865625 34.55890625 -4.2265625 50.87890625 C4.3534375 50.87890625 12.9334375 50.87890625 21.7734375 50.87890625 C21.69435208 44.05770214 21.69435208 44.05770214 21.59326172 37.23681641 C21.5882666 36.38909668 21.58327148 35.54137695 21.578125 34.66796875 C21.56765137 33.79865723 21.55717773 32.9293457 21.54638672 32.03369141 C21.7734375 29.87890625 21.7734375 29.87890625 23.7734375 27.87890625 C25.86238289 27.64842796 25.86238289 27.64842796 28.49368286 27.67636108 C29.48930237 27.68202591 30.48492187 27.68769073 31.51071167 27.69352722 C33.15500656 27.71833916 33.15500656 27.71833916 34.83251953 27.74365234 C36.5593396 27.75784462 36.5593396 27.75784462 38.32104492 27.77232361 C42.14127117 27.80610801 45.96117997 27.85419445 49.78125 27.90234375 C52.42397217 27.92849984 55.06670328 27.95376772 57.70944214 27.97817993 C63.96393787 28.03745905 70.21827554 28.10702182 76.4726218 28.18025076 C83.59216525 28.26311125 90.71180884 28.33455109 97.83148408 28.40501666 C112.47894643 28.55024368 127.12623092 28.70986171 141.7734375 28.87890625 C141.7734375 29.20890625 141.7734375 29.53890625 141.7734375 29.87890625 C102.8334375 29.87890625 63.8934375 29.87890625 23.7734375 29.87890625 C23.7734375 37.13890625 23.7734375 44.39890625 23.7734375 51.87890625 C13.5434375 51.87890625 3.3134375 51.87890625 -7.2265625 51.87890625 C-7.2265625 35.04890625 -7.2265625 18.21890625 -7.2265625 0.87890625 C-4.62765096 -0.42054952 -2.89989594 -0.14340145 0 0 Z " fill="#22505C" transform="translate(196.2265625,111.12109375)"/>
<path d="M0 0 C79.53 0 159.06 0 241 0 C241 0.33 241 0.66 241 1 C207.34 1 173.68 1 139 1 C139 1.66 139 2.32 139 3 C122.17 3 105.34 3 88 3 C88 2.67 88 2.34 88 2 C58.96 1.67 29.92 1.34 0 1 C0 0.67 0 0.34 0 0 Z " fill="#275663" transform="translate(112,388)"/>
<path d="M0 0 C1.32 0.33 2.64 0.66 4 1 C3.67 1.7425 3.34 2.485 3 3.25 C1.06325267 10.51280249 1.40398343 18.65832376 3 26 C5.47561878 28.47561878 6.19563226 28.2561806 9.60635376 28.2784729 C10.5767308 28.28963638 11.54710785 28.30079987 12.54689026 28.31230164 C13.61503464 28.31446182 14.68317902 28.31662201 15.78369141 28.31884766 C16.90564407 28.32889328 18.02759674 28.3389389 19.18354797 28.34928894 C22.90621408 28.3802745 26.62880779 28.39719879 30.3515625 28.4140625 C32.92703888 28.43276177 35.50250905 28.45233423 38.07797241 28.4727478 C44.17296738 28.51894144 50.26795835 28.55630246 56.36303651 28.58942068 C63.30134017 28.62761083 70.2395495 28.67702906 77.17777371 28.72740483 C91.45177806 28.83079058 105.72584624 28.9200293 120 29 C120 29.33 120 29.66 120 30 C80.4 30 40.8 30 0 30 C0 20.1 0 10.2 0 0 Z " fill="#244A56" transform="translate(72,189)"/>
<path d="M0 0 C1.24423737 -0.00021904 1.24423737 -0.00021904 2.51361084 -0.0004425 C5.25690318 0.00025447 8.00012772 0.00803686 10.7434082 0.01586914 C12.64484113 0.01773408 14.54627455 0.01915763 16.44770813 0.02015686 C21.45363694 0.02397604 26.45953675 0.03380123 31.4654541 0.04486084 C36.57307544 0.05508783 41.68070146 0.05965724 46.78833008 0.06469727 C56.81112928 0.07542401 66.83390695 0.09249327 76.85668945 0.11352539 C76.52668945 0.77352539 76.19668945 1.43352539 75.85668945 2.11352539 C67.49326482 2.26853299 59.12975691 2.41668899 50.7660656 2.55648899 C46.88100489 2.62163519 42.99601087 2.6889974 39.11108398 2.76171875 C35.35046347 2.83202676 31.58978044 2.89612906 27.82898331 2.95622063 C26.40589796 2.97999402 24.98284591 3.0058722 23.55984116 3.03405952 C15.27020185 3.19667014 7.11364725 3.03220791 -1.14816284 2.23887634 C-4.12680989 1.98849062 -4.12680989 1.98849062 -6.91360474 2.71070862 C-7.64940765 2.84363815 -8.38521057 2.97656769 -9.14331055 3.11352539 C-9.80331055 2.45352539 -10.46331055 1.79352539 -11.14331055 1.11352539 C-7.39185688 -0.13695916 -3.9065497 -0.01791408 0 0 Z " fill="#557984" transform="translate(169.143310546875,247.886474609375)"/>
<path d="M0 0 C9.48517923 -0.02335508 18.97034829 -0.04103152 28.45555019 -0.05181217 C32.86173468 -0.056991 37.26789924 -0.06399565 41.67407227 -0.07543945 C45.9405289 -0.08644876 50.20696659 -0.09231429 54.47343636 -0.09487724 C56.0865922 -0.09669947 57.69974723 -0.10025608 59.31289482 -0.10573006 C70.24701499 -0.14129667 81.09194594 0.23833027 92 1 C92 1.33 92 1.66 92 2 C57.99583284 3.52937403 57.99583284 3.52937403 43.69140625 2.52734375 C34.63333346 1.92624895 25.57378943 1.66950568 16.5 1.4375 C14.88671177 1.39413902 13.27343045 1.35052038 11.66015625 1.30664062 C7.77351023 1.20147286 3.88678906 1.09973526 0 1 C0 0.67 0 0.34 0 0 Z " fill="#25515F" transform="translate(245,110)"/>
<path d="M0 0 C20.46 0 40.92 0 62 0 C61.67 0.99 61.34 1.98 61 3 C41.53 3.33 22.06 3.66 2 4 C1.67 3.01 1.34 2.02 1 1 C0.67 2.32 0.34 3.64 0 5 C0 3.35 0 1.7 0 0 Z " fill="#658A91" transform="translate(65,302)"/>
<path d="M0 0 C-1 3 -1 3 -2.75 4.0625 C-5.15744198 5.06560083 -7.57849637 6.03139855 -10 7 C-10.61746094 7.33902344 -11.23492187 7.67804688 -11.87109375 8.02734375 C-14.19602039 9.08955794 -16.02412462 9.36063258 -18.5625 9.5625 C-21.32084619 9.79042405 -23.34052665 10.11350888 -26 11 C-28.00875442 10.72428861 -30.01178687 10.39764263 -32 10 C-31.67 9.34 -31.34 8.68 -31 8 C-28.57599383 7.47841658 -26.19755864 7.0589794 -23.75 6.6875 C-16.88804116 5.54538672 -10.90358956 3.69146013 -4.4765625 0.98828125 C-2 0 -2 0 0 0 Z " fill="#426871" transform="translate(388,378)"/>
<path d="M0 0 C0.33 0 0.66 0 1 0 C2.38907762 10.41808214 2.29176439 20.57361601 1 31 C0.34 31 -0.32 31 -1 31 C-1.71961582 22.31320899 -2.14368684 13.71700174 -2 5 C-1.67 5 -1.34 5 -1 5 C-0.67 3.35 -0.34 1.7 0 0 Z " fill="#456873" transform="translate(451,143)"/>
<path d="M0 0 C0.99 0.66 1.98 1.32 3 2 C1.625 4.5 1.625 4.5 0 7 C-0.66 7 -1.32 7 -2 7 C-2 7.66 -2 8.32 -2 9 C-2.66 9 -3.32 9 -4 9 C-4.226875 9.556875 -4.45375 10.11375 -4.6875 10.6875 C-6.37550036 13.66159588 -8.46676517 15.72008865 -11 18 C-11.66 18 -12.32 18 -13 18 C-13 18.66 -13 19.32 -13 20 C-17.47058824 24 -17.47058824 24 -20 24 C-19.67 22.35 -19.34 20.7 -19 19 C-17.68 19 -16.36 19 -15 19 C-15 18.34 -15 17.68 -15 17 C-14.34 17 -13.68 17 -13 17 C-13 16.34 -13 15.68 -13 15 C-9.53846154 12 -9.53846154 12 -7 12 C-6.34 9.69 -5.68 7.38 -5 5 C-4.34 5 -3.68 5 -3 5 C-1.3553326 2.53673288 -1.3553326 2.53673288 0 0 Z " fill="#51717D" transform="translate(443,372)"/>
<path d="M0 0 C5.13594872 0.43550442 7.53491546 1.85364687 11.25 5.375 C12.10078125 6.16648437 12.9515625 6.95796875 13.828125 7.7734375 C16 10 16 10 18 13 C17.625 15.1875 17.625 15.1875 17 17 C15.68 17 14.36 17 13 17 C12.938125 15.9275 12.87625 14.855 12.8125 13.75 C11.85129179 9.31365441 10.6231767 8.5083531 7 6 C7 5.34 7 4.68 7 4 C6.21625 3.896875 5.4325 3.79375 4.625 3.6875 C2 3 2 3 0 0 Z " fill="#446670" transform="translate(366,118)"/>
<path d="M0 0 C0.68774405 1.32258472 1.34711373 2.65986503 2 4 C2.5259375 5.010625 3.051875 6.02125 3.59375 7.0625 C5.51201699 11.56036372 5.12302476 15.65443606 4.6875 20.4375 C4.62626953 21.26443359 4.56503906 22.09136719 4.50195312 22.94335938 C4.35015323 24.96346564 4.17724521 26.98196713 4 29 C2 27 2 27 1.8046875 23.7421875 C1.82789063 22.46601563 1.85109375 21.18984375 1.875 19.875 C1.89304687 18.59367187 1.91109375 17.31234375 1.9296875 15.9921875 C1.95289063 15.00476563 1.97609375 14.01734375 2 13 C1.01 12.67 0.02 12.34 -1 12 C-0.67 9.03 -0.34 6.06 0 3 C-0.66 2.67 -1.32 2.34 -2 2 C-1.34 1.34 -0.68 0.68 0 0 Z " fill="#265563" transform="translate(388,282)"/>
<path d="M0 0 C0.66 0 1.32 0 2 0 C2.22423695 2.97871518 2.42969368 5.95685926 2.625 8.9375 C2.68945312 9.76830078 2.75390625 10.59910156 2.8203125 11.45507812 C3.28115541 18.85736734 2.51924765 25.39377421 -1 32 C-1.33 32 -1.66 32 -2 32 C-2.125 28.625 -2.125 28.625 -2 25 C-1.34 24.34 -0.68 23.68 0 23 C0.27787668 20.57402049 0.27787668 20.57402049 0.1953125 17.7734375 C0.18886719 16.7421875 0.18242187 15.7109375 0.17578125 14.6484375 C0.15902344 13.56820312 0.14226562 12.48796875 0.125 11.375 C0.11597656 10.28703125 0.10695313 9.1990625 0.09765625 8.078125 C0.07403409 5.38519848 0.04109556 2.69270745 0 0 Z " fill="#214C5A" transform="translate(420,150)"/>
<path d="M0 0 C0.33 0.99 0.66 1.98 1 3 C-0.3125 4.5 -0.3125 4.5 -2 6 C-2.99 6 -3.98 6 -5 6 C-5 7.32 -5 8.64 -5 10 C-8.9260825 11.66561076 -12.85577342 12.98349159 -17 14 C-17.66 13.67 -18.32 13.34 -19 13 C-16.73172355 11.51678092 -14.46058097 10.03832301 -12.1875 8.5625 C-11.54490234 8.14162109 -10.90230469 7.72074219 -10.24023438 7.28710938 C-7.51609896 5.52277296 -5.09247829 4.0308261 -2 3 C-2 2.34 -2 1.68 -2 1 C-1.34 0.67 -0.68 0.34 0 0 Z " fill="#436E79" transform="translate(395,213)"/>
<path d="M0 0 C0.99 0 1.98 0 3 0 C3.19335938 0.63808594 3.38671875 1.27617188 3.5859375 1.93359375 C3.84632813 2.75988281 4.10671875 3.58617188 4.375 4.4375 C4.63023437 5.26121094 4.88546875 6.08492187 5.1484375 6.93359375 C5.80882227 9.17798016 5.80882227 9.17798016 8 10 C8.9807664 12.94229921 9.16488128 14.9908784 9.1875 18.0625 C9.20167969 18.94035156 9.21585937 19.81820312 9.23046875 20.72265625 C9 23 9 23 7 25 C6.82984375 24.03320312 6.6596875 23.06640625 6.484375 22.0703125 C5.06238572 14.32261336 3.33504705 7.19489846 0 0 Z " fill="#51737C" transform="translate(411,124)"/>
<path d="M0 0 C10.56 0 21.12 0 32 0 C32 0.66 32 1.32 32 2 C20.99685311 2.8598024 10.8623758 3.35969025 0 1 C0 0.67 0 0.34 0 0 Z " fill="#27505A" transform="translate(72,248)"/>
<path d="M0 0 C1.93852436 3.25641444 2.24495945 5.67129436 2.1875 9.4375 C2.18105469 10.36433594 2.17460937 11.29117188 2.16796875 12.24609375 C2.00505262 14.91716056 1.5913295 17.39341958 1 20 C0.34 20 -0.32 20 -1 20 C-1.02696009 17.2291017 -1.04681952 14.4584655 -1.0625 11.6875 C-1.07087891 10.90181641 -1.07925781 10.11613281 -1.08789062 9.30664062 C-1.09111328 8.54931641 -1.09433594 7.79199219 -1.09765625 7.01171875 C-1.10289307 6.31522217 -1.10812988 5.61872559 -1.11352539 4.90112305 C-1 3 -1 3 0 0 Z " fill="#537279" transform="translate(392,154)"/>
<path d="M0 0 C3.17391668 3.00235362 5.71252601 6.19753642 8.25 9.75 C8.95640625 10.73484375 9.6628125 11.7196875 10.390625 12.734375 C10.92171875 13.48203125 11.4528125 14.2296875 12 15 C10.02 15.99 10.02 15.99 8 17 C5.70620251 13.55930376 5 12.27709699 5 8 C4.360625 7.79375 3.72125 7.5875 3.0625 7.375 C1 6 1 6 0.25 2.875 C0.1675 1.92625 0.085 0.9775 0 0 Z " fill="#5B7A84" transform="translate(427,90)"/>
<path d="M0 0 C-0.66 1.32 -1.32 2.64 -2 4 C-2.66 4 -3.32 4 -4 4 C-4 4.66 -4 5.32 -4 6 C-8.12168689 7.62950412 -10.70700357 8.26264601 -15 7 C-12.66302971 4.66302971 -10.50902101 3.72905946 -7.5 2.375 C-6.03046875 1.70597656 -6.03046875 1.70597656 -4.53125 1.0234375 C-2 0 -2 0 0 0 Z " fill="#466D78" transform="translate(359,181)"/>
<path d="M0 0 C0.33 0 0.66 0 1 0 C1.97900743 6.1677468 2.57431227 12.11585767 0 18 C-0.99 18.33 -1.98 18.66 -3 19 C-2.67 19.99 -2.34 20.98 -2 22 C-2.99 22.33 -3.98 22.66 -5 23 C-4.72285156 21.92621094 -4.44570313 20.85242188 -4.16015625 19.74609375 C-3.79407904 18.30994471 -3.42820442 16.87374401 -3.0625 15.4375 C-2.78889648 14.38079102 -2.78889648 14.38079102 -2.50976562 13.30273438 C-1.3884486 8.87862902 -0.56543671 4.52944562 0 0 Z " fill="#50717A" transform="translate(430,317)"/>
<path d="M0 0 C0.66 0.33 1.32 0.66 2 1 C2.2144997 9.27015524 2.07422976 16.96235969 0 25 C-0.33 25 -0.66 25 -1 25 C-1.15392039 16.61988971 -0.68271293 8.35104207 0 0 Z " fill="#637B84" transform="translate(392,297)"/>
<path d="M0 0 C4.29 0 8.58 0 13 0 C12.67 0.66 12.34 1.32 12 2 C9.41682273 2.39465208 6.85811719 2.50806152 4.25 2.65625 C3.5075 2.7696875 2.765 2.883125 2 3 C0.71553081 5.56893838 0.67022856 7.76576337 0.4375 10.625 C0.35371094 11.62789063 0.26992187 12.63078125 0.18359375 13.6640625 C0.12300781 14.43492187 0.06242187 15.20578125 0 16 C-0.33 16 -0.66 16 -1 16 C-1.22281874 14.08496326 -1.42771076 12.16783494 -1.625 10.25 C-1.74101563 9.18265625 -1.85703125 8.1153125 -1.9765625 7.015625 C-2 4 -2 4 0 0 Z " fill="#225361" transform="translate(110,320)"/>
<path d="M0 0 C0.33 0.99 0.66 1.98 1 3 C0.42032471 3.02505615 -0.15935059 3.0501123 -0.7565918 3.07592773 C-3.40042107 3.19246234 -6.04394409 3.31492682 -8.6875 3.4375 C-10.05551758 3.49647461 -10.05551758 3.49647461 -11.45117188 3.55664062 C-12.33740234 3.59853516 -13.22363281 3.64042969 -14.13671875 3.68359375 C-14.94842529 3.72025146 -15.76013184 3.75690918 -16.59643555 3.79467773 C-19.06196559 3.93353177 -19.06196559 3.93353177 -21.61645508 4.70727539 C-22.4030249 4.80387451 -23.18959473 4.90047363 -24 5 C-25.8125 3.5625 -25.8125 3.5625 -27 2 C-26.21761963 1.97494385 -25.43523926 1.9498877 -24.62915039 1.92407227 C-21.10675051 1.80850212 -17.5846444 1.68560051 -14.0625 1.5625 C-12.83080078 1.52318359 -11.59910156 1.48386719 -10.33007812 1.44335938 C-8.5753418 1.38051758 -8.5753418 1.38051758 -6.78515625 1.31640625 C-5.70113525 1.27974854 -4.61711426 1.24309082 -3.50024414 1.20532227 C-1.060737 1.27635735 -1.060737 1.27635735 0 0 Z " fill="#255562" transform="translate(347,187)"/>
<path d="M0 0 C0.99 0.495 0.99 0.495 2 1 C4.09107044 7.27321131 2.7291857 12.83977593 1 19 C0.67 19 0.34 19 0 19 C0 12.73 0 6.46 0 0 Z " fill="#214855" transform="translate(431,303)"/>
<path d="M0 0 C3.66172475 0.62678171 6.8818995 1.64451846 10.3125 3.0625 C11.19550781 3.42472656 12.07851563 3.78695312 12.98828125 4.16015625 C13.65214844 4.43730469 14.31601562 4.71445313 15 5 C11.92111109 6.78926658 11.21299648 7.03423158 7.5 6.4375 C3.66585319 4.86276113 2.24765161 3.41643045 0 0 Z " fill="#436B74" transform="translate(381,61)"/>
<path d="M0 0 C5.54050113 0.56825653 10.03715966 2.62886517 15 5 C14.34 5.66 13.68 6.32 13 7 C12.505 6.690625 12.01 6.38125 11.5 6.0625 C8.02013219 4.58355618 4.75971491 4.37597149 1 4 C0.67 2.68 0.34 1.36 0 0 Z " fill="#4F717B" transform="translate(353,250)"/>
<path d="M0 0 C0.66 0.33 1.32 0.66 2 1 C3 4 3 4 3 8 C-2.75 6.125 -2.75 6.125 -5 5 C-4 2 -4 2 -2.0625 0.75 C-1.381875 0.5025 -0.70125 0.255 0 0 Z " fill="#4F6F77" transform="translate(374,227)"/>
<path d="M0 0 C4.29 0 8.58 0 13 0 C13.33 0.66 13.66 1.32 14 2 C12.37585622 2.19477739 10.75063577 2.38059458 9.125 2.5625 C8.22007813 2.66691406 7.31515625 2.77132812 6.3828125 2.87890625 C4 3 4 3 2 2 C2 4.64 2 7.28 2 10 C1.67 10 1.34 10 1 10 C0.67 6.7 0.34 3.4 0 0 Z " fill="#2F5C68" transform="translate(66,145)"/>
<path d="M0 0 C1.6875 1.4375 1.6875 1.4375 3 4 C2.43349712 7.17685927 1.43589044 10.11063679 0 13 C-0.99 13.495 -0.99 13.495 -2 14 C-2.1799928 8.78020872 -1.97094808 4.92737019 0 0 Z " fill="#4D707B" transform="translate(387,322)"/>
<path d="M0 0 C0 0.99 0 1.98 0 3 C-5.28 3 -10.56 3 -16 3 C-15.67 2.34 -15.34 1.68 -15 1 C-12.890625 0.5859375 -12.890625 0.5859375 -10.25 0.375 C-9.38890625 0.30023438 -8.5278125 0.22546875 -7.640625 0.1484375 C-5.08696789 0.00488873 -2.55704224 -0.02759398 0 0 Z " fill="#4F717B" transform="translate(127,321)"/>
<path d="M0 0 C1.36511719 0.43119141 1.36511719 0.43119141 2.7578125 0.87109375 C3.45648438 1.09925781 4.15515625 1.32742187 4.875 1.5625 C4.545 2.5525 4.215 3.5425 3.875 4.5625 C-2.27734375 3.9765625 -2.27734375 3.9765625 -4.125 3.5625 C-4.455 2.9025 -4.785 2.2425 -5.125 1.5625 C-5.785 1.5625 -6.445 1.5625 -7.125 1.5625 C-7.125 0.9025 -7.125 0.2425 -7.125 -0.4375 C-4.30685434 -1.84657283 -2.95222796 -0.94622691 0 0 Z " fill="#4A717B" transform="translate(361.125,113.4375)"/>
<path d="M0 0 C1.9375 0.625 1.9375 0.625 4 2 C4.75 5.125 4.75 5.125 5 8 C3.35 8 1.7 8 0 8 C-1.09658936 4.71023192 -0.79953138 3.28696233 0 0 Z " fill="#37616B" transform="translate(379,127)"/>
<path d="M0 0 C2.00130916 2.54712074 3.85727656 4.9527375 5 8 C4.625 10.25 4.625 10.25 4 12 C0.17179787 10.08589894 -0.70517415 4.88447755 -2 1 C-1.34 0.67 -0.68 0.34 0 0 Z " fill="#496C75" transform="translate(452,258)"/>
<path d="M0 0 C1.31625194 2.63250388 0.74813658 3.80179056 0.0625 6.625 C-0.13214844 7.44226563 -0.32679688 8.25953125 -0.52734375 9.1015625 C-0.76130859 10.04128906 -0.76130859 10.04128906 -1 11 C-3 8 -3 8 -3.5 5.375 C-3.665 4.59125 -3.83 3.8075 -4 3 C-4.66 2.67 -5.32 2.34 -6 2 C-5.38125 1.855625 -4.7625 1.71125 -4.125 1.5625 C-1.96741678 1.06847775 -1.96741678 1.06847775 0 0 Z " fill="#446974" transform="translate(463,329)"/>
<path d="M0 0 C6.93 0.33 13.86 0.66 21 1 C21 1.33 21 1.66 21 2 C14.4 2.33 7.8 2.66 1 3 C0.67 2.01 0.34 1.02 0 0 Z " fill="#27515C" transform="translate(105,248)"/>
<path d="M0 0 C0.33 0 0.66 0 1 0 C1.25422542 3.2902379 1.47409878 6.58188225 1.6875 9.875 C1.76033203 10.81214844 1.83316406 11.74929687 1.90820312 12.71484375 C1.96298828 13.61074219 2.01777344 14.50664062 2.07421875 15.4296875 C2.13182373 16.25710449 2.18942871 17.08452148 2.2487793 17.93701172 C2.16668213 18.61779785 2.08458496 19.29858398 2 20 C1.01 20.66 0.02 21.32 -1 22 C-0.67 14.74 -0.34 7.48 0 0 Z " fill="#829CA8" transform="translate(419,153)"/>
<path d="M0 0 C-8.01162791 4.31395349 -8.01162791 4.31395349 -12.375 3.625 C-12.91125 3.41875 -13.4475 3.2125 -14 3 C-13.01 3 -12.02 3 -11 3 C-11 2.01 -11 1.02 -11 0 C-6.98195309 -0.84098656 -3.98196457 -1.05404945 0 0 Z " fill="#5E7F88" transform="translate(392,412)"/>
<path d="M0 0 C0.99 1.32 1.98 2.64 3 4 C0.64031256 6.09749995 -0.54616994 6.96905704 -3.75 7.1875 C-4.86375 7.0946875 -4.86375 7.0946875 -6 7 C-4.02 4.69 -2.04 2.38 0 0 Z " fill="#4D727C" transform="translate(412,359)"/>
<path d="M0 0 C2.64 0 5.28 0 8 0 C7.67 0.99 7.34 1.98 7 3 C2.545 3.495 2.545 3.495 -2 4 C-1.34 2.68 -0.68 1.36 0 0 Z " fill="#49717C" transform="translate(341,248)"/>
<path d="M0 0 C0.99 0 1.98 0 3 0 C1.68938409 4.23429756 0.05643741 8.07407404 -2 12 C-2.33 12 -2.66 12 -3 12 C-2.49202991 7.6822542 -1.80317221 3.96697886 0 0 Z " fill="#557682" transform="translate(454,353)"/>
<path d="M0 0 C1.32 0 2.64 0 4 0 C3.34 1.65 2.68 3.3 2 5 C1.34 5 0.68 5 0 5 C-0.66 6.32 -1.32 7.64 -2 9 C-2.66 8.67 -3.32 8.34 -4 8 C-2.25 3.125 -2.25 3.125 0 2 C0 1.34 0 0.68 0 0 Z " fill="#51737D" transform="translate(429,217)"/>
<path d="M0 0 C0.33 0 0.66 0 1 0 C1 4.95 1 9.9 1 15 C0.01 15.495 0.01 15.495 -1 16 C-1.66 15.34 -2.32 14.68 -3 14 C-2.5359375 12.7625 -2.5359375 12.7625 -2.0625 11.5 C-0.88122417 7.60873845 -0.41775832 4.03833047 0 0 Z " fill="#678990" transform="translate(361,162)"/>
<path d="M0 0 C0.99 0.33 1.98 0.66 3 1 C3.33 3.31 3.66 5.62 4 8 C3.34 8 2.68 8 2 8 C1.67 8.66 1.34 9.32 1 10 C0.63883954 8.5225254 0.28624952 7.04295325 -0.0625 5.5625 C-0.25972656 4.73878906 -0.45695312 3.91507813 -0.66015625 3.06640625 C-0.82837891 2.04353516 -0.82837891 2.04353516 -1 1 C-0.67 0.67 -0.34 0.34 0 0 Z " fill="#375E6C" transform="translate(360,152)"/>
<path d="M0 0 C0.99 0.33 1.98 0.66 3 1 C3.1875 4.3125 3.1875 4.3125 3 8 C2.01 8.99 1.02 9.98 0 11 C0 7.37 0 3.74 0 0 Z " fill="#24515E" transform="translate(362,160)"/>
<path d="M0 0 C0.66 0 1.32 0 2 0 C2.67305018 1.60149886 3.33822227 3.20631029 4 4.8125 C4.37125 5.70582031 4.7425 6.59914063 5.125 7.51953125 C6 10 6 10 6 13 C5.34 13 4.68 13 4 13 C2.39644899 9.49223216 1.77963136 6.85645121 2 3 C1.34 3 0.68 3 0 3 C0 2.01 0 1.02 0 0 Z " fill="#537178" transform="translate(441,113)"/>
<path d="M0 0 C3.63 0 7.26 0 11 0 C11.33 0.66 11.66 1.32 12 2 C7.34462607 2.83796731 3.62921525 3.0161692 -1 2 C-0.67 1.34 -0.34 0.68 0 0 Z " fill="#3B6471" transform="translate(357,386)"/>
<path d="M0 0 C0.33 0 0.66 0 1 0 C0.67 3.3 0.34 6.6 0 10 C-1.32 9.67 -2.64 9.34 -4 9 C-2.80100302 5.9168649 -1.52299523 2.93720508 0 0 Z " fill="#507177" transform="translate(422,344)"/>
<path d="M0 0 C2.5 1.75 2.5 1.75 5 4 C5 5.32 5 6.64 5 8 C4.34 8 3.68 8 3 8 C1.7109375 6.46875 1.7109375 6.46875 0.375 4.5 C-0.29402344 3.52546875 -0.29402344 3.52546875 -0.9765625 2.53125 C-1.31429688 2.0259375 -1.65203125 1.520625 -2 1 C-1.34 0.67 -0.68 0.34 0 0 Z " fill="#57767E" transform="translate(411,255)"/>
<path d="M0 0 C0.33 1.32 0.66 2.64 1 4 C0.01 4.33 -0.98 4.66 -2 5 C-2 6.65 -2 8.3 -2 10 C-2.99 10.495 -2.99 10.495 -4 11 C-4.66 10.34 -5.32 9.68 -6 9 C-4.02 6.03 -2.04 3.06 0 0 Z " fill="#769196" transform="translate(411,193)"/>
<path d="M0 0 C0.95465783 2.16967689 1.14401212 3.56328793 0.3984375 5.82421875 C-0.35870385 7.5684743 -1.17609198 9.28627131 -2 11 C-2.66 10.67 -3.32 10.34 -4 10 C-3.67 7.36 -3.34 4.72 -3 2 C-2.34 2.33 -1.68 2.66 -1 3 C-0.67 2.01 -0.34 1.02 0 0 Z " fill="#607E85" transform="translate(460,341)"/>
<path d="M0 0 C4.24480464 -0.33292585 6.35542625 -0.43885872 9.9375 2 C10.618125 2.66 11.29875 3.32 12 4 C8.35839192 5.21386936 7.66834531 4.6674695 4.3125 3.0625 C3.10013672 2.49208984 3.10013672 2.49208984 1.86328125 1.91015625 C1.24839844 1.60980469 0.63351562 1.30945313 0 1 C0 0.67 0 0.34 0 0 Z " fill="#567782" transform="translate(377,235)"/>
<path d="M0 0 C-0.66 1.32 -1.32 2.64 -2 4 C-4.64 3.01 -7.28 2.02 -10 1 C-6.42181037 -1.33958553 -4.07775191 -0.9267618 0 0 Z " fill="#55767F" transform="translate(381,91)"/>
<path d="M0 0 C0.33 0.99 0.66 1.98 1 3 C-0.97420135 5.52259061 -1.96745642 5.9929808 -5.1875 6.6875 C-6.5796875 6.8421875 -6.5796875 6.8421875 -8 7 C-6.71034824 5.62437146 -5.37310707 4.29233607 -4 3 C-3.34 3 -2.68 3 -2 3 C-2 2.34 -2 1.68 -2 1 C-1.34 0.67 -0.68 0.34 0 0 Z " fill="#52737D" transform="translate(395,213)"/>
<path d="M0 0 C3.37503669 1.1858237 5.64722731 2.27573689 8 5 C6.35 5.33 4.7 5.66 3 6 C0 1.125 0 1.125 0 0 Z " fill="#557782" transform="translate(405,72)"/>
<path d="M0 0 C0.99 0 1.98 0 3 0 C2.34 1.98 1.68 3.96 1 6 C-0.65 6 -2.3 6 -4 6 C-2.1875 3 -2.1875 3 0 0 Z " fill="#3D6371" transform="translate(404,203)"/>
<path d="M0 0 C-1.07401108 2.91517292 -1.77810176 4.77810176 -4 7 C-5 6 -5 6 -5.0625 3.4375 C-5.041875 2.633125 -5.02125 1.82875 -5 1 C-3 0 -3 0 0 0 Z " fill="#5A7D88" transform="translate(442,203)"/>
<path d="M0 0 C0.33 0 0.66 0 1 0 C0.14285714 8.57142857 0.14285714 8.57142857 -2 12 C-3.6442351 7.06729471 -2.18615592 4.45975807 0 0 Z " fill="#5C7A84" transform="translate(450,175)"/>
<path d="M0 0 C0 0.99 0 1.98 0 3 C-2 4.6875 -2 4.6875 -4 6 C-4.66 5.67 -5.32 5.34 -6 5 C-6 4.01 -6 3.02 -6 2 C-4.02 1.34 -2.04 0.68 0 0 Z " fill="#446C77" transform="translate(348,327)"/>
<path d="M0 0 C0.66 0.33 1.32 0.66 2 1 C2 2.32 2 3.64 2 5 C-0.375 5.625 -0.375 5.625 -3 6 C-3.66 5.34 -4.32 4.68 -5 4 C-3.35 3.34 -1.7 2.68 0 2 C0 1.34 0 0.68 0 0 Z " fill="#5A7983" transform="translate(354,322)"/>
<path d="M0 0 C0.66 0 1.32 0 2 0 C3.75 2.25 3.75 2.25 5 5 C4.1875 7.3125 4.1875 7.3125 3 9 C1.35173889 6.03312999 0.55728913 3.34373475 0 0 Z " fill="#466772" transform="translate(426,282)"/>
<path d="M0 0 C0.66 0 1.32 0 2 0 C1.5020163 3.73487777 1.12508244 5.81237635 -1 9 C-1.80967438 6.08517222 -2.21845993 4.53886783 -1.0625 1.6875 C-0.711875 1.130625 -0.36125 0.57375 0 0 Z " fill="#4D6D79" transform="translate(446,187)"/>
<path d="M0 0 C0.33 0.66 0.66 1.32 1 2 C1.66 2 2.32 2 3 2 C3.33 3.98 3.66 5.96 4 8 C3.34 7.67 2.68 7.34 2 7 C2 6.34 2 5.68 2 5 C1.34 5 0.68 5 0 5 C0 4.34 0 3.68 0 3 C-0.66 2.67 -1.32 2.34 -2 2 C-1.34 1.34 -0.68 0.68 0 0 Z " fill="#5B8086" transform="translate(354,282)"/>
<path d="M0 0 C2.04119788 1.61594832 4.04072937 3.2856382 6 5 C6 5.66 6 6.32 6 7 C5.01 7.33 4.02 7.66 3 8 C0 3.375 0 3.375 0 0 Z " fill="#5D7B87" transform="translate(375,261)"/>
<path d="M0 0 C1.65 0.33 3.3 0.66 5 1 C5.33 2.65 5.66 4.3 6 6 C5.34 6 4.68 6 4 6 C4 5.34 4 4.68 4 4 C1.525 3.01 1.525 3.01 -1 2 C-0.67 1.34 -0.34 0.68 0 0 Z " fill="#3C616C" transform="translate(391,99)"/>
<path d="M0 0 C2.66735273 2.48952921 4.55746343 4.63408134 6 8 C4.125 7.6875 4.125 7.6875 2 7 C0 4 0 4 0 0 Z " fill="#53757E" transform="translate(427,90)"/>
<path d="M0 0 C1.32 0 2.64 0 4 0 C3.1875 1.9375 3.1875 1.9375 2 4 C1.01 4.33 0.02 4.66 -1 5 C-0.67 3.35 -0.34 1.7 0 0 Z " fill="#4D6F7A" transform="translate(424,391)"/>
<path d="M0 0 C-1 3 -1 3 -2.8125 4.3125 C-5 5 -5 5 -7.25 4.125 C-7.8275 3.75375 -8.405 3.3825 -9 3 C-2.25 0 -2.25 0 0 0 Z " fill="#5B7A84" transform="translate(388,378)"/>
<path d="M0 0 C0.33 0 0.66 0 1 0 C1.33 3.3 1.66 6.6 2 10 C1.34 10 0.68 10 0 10 C0 9.34 0 8.68 0 8 C-0.66 7.67 -1.32 7.34 -2 7 C-1.34 4.69 -0.68 2.38 0 0 Z " fill="#5D7B8C" transform="translate(462,284)"/>
</svg>
